<?xml version="1.0" standalone="no"?>
<!DOCTYPE svg PUBLIC "-//W3C//DTD SVG 20010904//EN"
 "http://www.w3.org/TR/2001/REC-SVG-20010904/DTD/svg10.dtd">
<svg version="1.0" xmlns="http://www.w3.org/2000/svg"
 width="1000.000000pt" height="1000.000000pt" viewBox="0 0 1000.000000 1000.000000"
 preserveAspectRatio="xMidYMid meet">
<metadata>
Created by potrace 1.11, written by Peter Selinger 2001-2013
</metadata>
<g transform="translate(0.000000,1000.000000) scale(0.100000,-0.100000)"
fill="#000000" stroke="none">
<path d="M4800 9273 c-413 -19 -892 -117 -1274 -260 -1340 -501 -2333 -1618
-2666 -2996 -78 -322 -109 -569 -117 -912 -8 -354 14 -607 83 -944 334 -1650
1614 -2949 3259 -3310 294 -64 503 -89 815 -98 1532 -40 2964 747 3758 2067
702 1167 802 2610 266 3864 -307 718 -813 1348 -1440 1796 -779 555 -1734 838
-2684 793z m580 -1552 c599 -92 1124 -356 1551 -781 314 -313 533 -664 676
-1085 167 -492 188 -1063 58 -1569 -244 -952 -968 -1705 -1910 -1984 -262 -78
-471 -106 -780 -107 -268 0 -335 7 -577 56 -823 167 -1541 723 -1914 1484 -91
186 -137 305 -188 483 -341 1191 167 2481 1231 3128 334 203 733 342 1103 383
52 6 109 13 125 15 17 2 134 3 260 1 168 -2 266 -9 365 -24z"/>
<path d="M4778 7229 c-429 -35 -836 -188 -1173 -440 -112 -84 -167 -133 -140
-124 37 12 129 34 215 52 77 15 204 17 1355 20 699 2 1280 5 1293 8 l23 6 -28
23 c-63 53 -256 171 -378 231 -354 174 -782 256 -1167 224z"/>
<path d="M3660 5943 c-470 -45 -727 -149 -867 -353 -32 -48 -58 -144 -85 -325
-19 -131 -17 -472 5 -610 22 -141 67 -324 107 -440 37 -105 149 -345 161 -345
5 0 29 16 55 35 25 19 71 42 102 50 96 27 135 47 195 104 175 165 358 607 487
1175 61 267 100 531 100 674 l0 42 -112 -2 c-62 0 -129 -3 -148 -5z"/>
<path d="M4420 5928 c0 -13 5 -219 10 -460 10 -474 1 -903 -24 -1133 -69 -638
-266 -1075 -567 -1261 l-60 -37 83 -44 c46 -25 93 -45 105 -46 11 -1 19 -5 17
-8 -5 -9 119 -64 222 -100 118 -39 303 -84 439 -105 151 -23 450 -23 610 0
153 22 401 85 518 132 100 40 287 131 287 140 0 3 -5 2 -10 -1 -17 -11 -221
14 -300 36 -91 25 -197 74 -270 124 -30 21 -61 38 -68 38 -6 0 -10 2 -7 5 2 3
-21 32 -51 65 -31 33 -72 84 -91 114 -35 52 -51 67 -39 38 8 -22 -2 -18 -15 6
-8 15 -8 19 0 15 16 -10 15 -7 -24 76 -80 174 -117 370 -117 618 -1 317 79
739 242 1285 58 195 118 415 137 503 l5 22 -516 0 -516 0 0 -22z m997 -70 c-3
-8 -6 -5 -6 6 -1 11 2 17 5 13 3 -3 4 -12 1 -19z m-10 -40 c-3 -8 -6 -5 -6 6
-1 11 2 17 5 13 3 -3 4 -12 1 -19z m-170 -600 c-3 -8 -6 -5 -6 6 -1 11 2 17 5
13 3 -3 4 -12 1 -19z m-20 -70 c-3 -8 -6 -5 -6 6 -1 11 2 17 5 13 3 -3 4 -12
1 -19z m-10 -40 c-3 -8 -6 -5 -6 6 -1 11 2 17 5 13 3 -3 4 -12 1 -19z m-810
-995 c-3 -10 -5 -4 -5 12 0 17 2 24 5 18 2 -7 2 -21 0 -30z m-10 -55 c-3 -7
-5 -2 -5 12 0 14 2 19 5 13 2 -7 2 -19 0 -25z m-10 -50 c-3 -7 -5 -2 -5 12 0
14 2 19 5 13 2 -7 2 -19 0 -25z m-10 -40 c-3 -8 -6 -5 -6 6 -1 11 2 17 5 13 3
-3 4 -12 1 -19z m-176 -521 c-10 -9 -11 -8 -5 6 3 10 9 15 12 12 3 -3 0 -11
-7 -18z m-271 -462 c17 -9 30 -18 30 -21 0 -4 -59 23 -69 32 -10 9 13 3 39
-11z m507 -191 c-3 -3 -12 -4 -19 -1 -8 3 -5 6 6 6 11 1 17 -2 13 -5z m1070 0
c-3 -3 -12 -4 -19 -1 -8 3 -5 6 6 6 11 1 17 -2 13 -5z m-1024 -11 c-7 -2 -19
-2 -25 0 -7 3 -2 5 12 5 14 0 19 -2 13 -5z m984 1 c-3 -3 -12 -4 -19 -1 -8 3
-5 6 6 6 11 1 17 -2 13 -5z m-940 -10 c-3 -3 -12 -4 -19 -1 -8 3 -5 6 6 6 11
1 17 -2 13 -5z m896 -1 c-7 -2 -19 -2 -25 0 -7 3 -2 5 12 5 14 0 19 -2 13 -5z
m-850 -10 c-7 -2 -19 -2 -25 0 -7 3 -2 5 12 5 14 0 19 -2 13 -5z m804 1 c-3
-3 -12 -4 -19 -1 -8 3 -5 6 6 6 11 1 17 -2 13 -5z m-750 -10 c-3 -3 -12 -4
-19 -1 -8 3 -5 6 6 6 11 1 17 -2 13 -5z m690 0 c-3 -3 -12 -4 -19 -1 -8 3 -5
6 6 6 11 1 17 -2 13 -5z"/>
<path d="M6162 5888 c-18 -102 -40 -282 -53 -448 -17 -213 -17 -878 0 -1050
37 -386 105 -612 223 -736 68 -72 112 -88 225 -82 102 5 162 30 231 98 119
115 281 454 357 745 117 454 82 973 -95 1400 -23 55 -44 108 -47 118 -5 16
-34 17 -417 17 l-413 0 -11 -62z"/>
</g>
</svg>
